OpenSim_Sub03_CSBaseline_GRF.mot
version=1
nRows=34
nColumns=19
inDegrees=no
endheader
time	lFx	lFy	lFz	lCOPx	lCOPy	lCOPz	rFx	rFy	rFz	rCOPx	rCOPy	rCOPz	lMx	lMy	lMz	rMx	rMy	rMz
69.66000000	39.88214223	736.58177410	68.49616169	1.02880129	0	-0.59964027	-1.27567819	1.18738176	0.16265513	-0.01083488	0	0.00326469	0	6.28145113	0	0	-0.00370719	0.00000000
69.67000000	44.18191100	734.52801374	68.08440759	1.02102360	0	-0.59940985	-3.18637946	2.00730053	0.07549186	-0.02748980	0	0.00837362	0	6.07736765	0	0	-0.00517093	0.00000000
69.68000000	48.53271030	730.53269316	67.59502527	1.01325563	0	-0.59912461	-6.22461673	2.84976496	-0.27404541	-0.04300296	0	0.01323444	0	5.89587616	0	0	-0.00175992	0.00000000
69.69000000	52.94454723	724.46410063	66.96785978	1.00547011	0	-0.59874760	-10.28139411	5.05864340	-1.01780127	-0.02730209	0	0.00873058	0	5.71646232	0	0	0.01422419	0.00000000
69.70000000	57.26572282	716.51054963	66.11561038	0.99789623	0	-0.59835427	-14.12914361	12.40371700	-2.31248884	0.07954876	0	-0.02347779	0	5.51134294	0	0	0.05018324	-0.00000000
69.71000000	61.32623899	706.95756953	64.98594069	0.99079092	0	-0.59802361	-15.20304041	31.89440803	-4.23284426	0.34685502	0	-0.10492067	0	5.28273643	0	0	0.09956723	-0.00000000
69.72000000	65.11043501	695.74241273	63.57552823	0.98401072	0	-0.59779147	-10.69829578	71.98017785	-6.50895161	0.75960220	0	-0.23198890	0	5.06273074	0	0	0.11509975	0
69.73000000	68.61837391	681.80786437	61.74058489	0.97729179	0	-0.59763395	-2.64202550	134.89823038	-8.50732586	1.11369338	0	-0.34230407	0	4.84658864	0	0	0.19185902	0
69.74000000	71.75811868	663.32132719	59.20827864	0.97064905	0	-0.59750845	-0.74546793	208.72862458	-10.76651372	1.29208568	0	-0.39875342	0	4.66035791	0	0	0.49632788	0.00000000
69.75000000	74.23288068	638.44091100	55.82288738	0.96413923	0	-0.59737875	-9.88422134	274.58546231	-13.82481977	1.34162394	0	-0.41520067	0	4.53286109	0	0	0.56476532	0
69.76000000	75.79770271	605.77829042	51.51377031	0.95778227	0	-0.59721035	-24.81726184	322.12733292	-15.98071718	1.33575595	0	-0.41353938	0	4.42768836	0	0	0.31061006	0
69.77000000	76.33269309	564.98989421	46.34182151	0.95167778	0	-0.59695296	-39.25478444	354.89664905	-16.35076066	1.31849048	0	-0.40771446	0	4.28751772	0	0	0.01815674	-0.00000000
69.78000000	75.62484183	516.95750519	40.61139832	0.94604810	0	-0.59652055	-50.82519671	383.33579281	-16.68212113	1.30544243	0	-0.40321813	0	4.02517926	0	0	-0.25429779	-0.00000000
69.79000000	73.36046364	463.18123435	34.89589208	0.94103208	0	-0.59579904	-59.76565283	415.92920479	-18.68303141	1.29812378	0	-0.40071896	0	3.57469680	0	0	-0.45143205	0
69.80000000	69.55372507	405.24651550	29.63638554	0.93735536	0	-0.59482211	-66.85097312	454.22346983	-22.70901390	1.29416410	0	-0.39943558	0	2.93037888	0	0	-0.72192312	-0.00000000
69.81000000	64.08987996	344.84483502	24.93753645	0.93729673	0	-0.59383282	-71.98886585	493.79466203	-27.76674933	1.29119355	0	-0.39861724	0	2.13034447	0	0	-1.09785536	0.00000000
69.82000000	56.56843607	284.18688726	20.79304006	0.94474867	0	-0.59309832	-74.66031740	529.45606248	-32.81046311	1.28798499	0	-0.39781723	0	1.30506502	0	0	-1.48647731	0
69.83000000	46.81499242	226.26228194	17.17261596	0.96408738	0	-0.59232548	-75.29717931	559.08672083	-37.45345178	1.28419079	0	-0.39687315	0	0.61191521	0	0	-1.92767279	0
69.84000000	35.45316702	174.08139721	14.07347258	0.99525422	0	-0.58864135	-74.63298393	583.94382421	-41.55133608	1.28004333	0	-0.39578973	0	0.12282555	0	0	-2.42111188	-0.00000000
69.85000000	23.87045498	129.66374005	11.45734695	1.02478743	0	-0.57377437	-73.25924847	606.72506796	-45.16942765	1.27580057	0	-0.39463107	0	-0.13069158	0	0	-2.94098122	-0.00000000
69.86000000	13.58620939	93.53730146	9.32599613	1.01487007	0	-0.53156387	-71.79266170	629.71436597	-48.45130407	1.27153191	0	-0.39343515	0	-0.17967840	0	0	-3.49541158	-0.00000000
69.87000000	5.56908243	65.04646570	7.63830167	0.90344483	0	-0.44128857	-70.71932892	653.61349120	-51.47750421	1.26727087	0	-0.39222396	0	-0.14072603	0	0	-4.05575661	-0.00000000
69.88000000	-0.06675839	42.91341245	6.20574337	0.64568490	0	-0.29656930	-70.13088917	677.51424228	-54.31206446	1.26312500	0	-0.39109919	0	-0.10663210	0	0	-4.57360590	0
69.89000000	-3.83720361	26.08312596	5.03841308	0.32493883	0	-0.14099913	-69.68271363	699.80447640	-56.90098960	1.25902287	0	-0.39017647	0	-0.08841342	0	0	-5.07272604	-0.00000000
69.90000000	-6.18064522	13.59852518	4.00968752	0.09353426	0	-0.03625071	-68.81417822	719.12842725	-58.90101583	1.25455112	0	-0.38943409	0	-0.04560846	0	0	-5.52471836	0.00000000
69.91000000	-7.17595708	4.37977000	2.94376483	-0.01024040	0	0.00794149	-67.28432197	735.05389983	-60.14005653	1.24948475	0	-0.38879566	0	-0.01347527	0	0	-5.82948090	0.00000000
69.92000000	-6.70668181	-2.59783622	1.51972043	-0.03292778	0	0.01596639	-65.12582717	747.87784956	-60.65137608	1.24392465	0	-0.38823084	0	0.00115760	0	0	-5.94445276	0
69.93000000	-5.12608411	-7.88322805	-0.22930713	-0.02386181	0	0.01078554	-62.39297688	758.19960127	-60.64320020	1.23809278	0	-0.38771998	0	0.00448753	0	0	-5.99653896	0
69.94000000	-3.44542686	-11.50472846	-1.63551559	-0.01056527	0	0.00448988	-59.05952459	766.32863189	-60.59663382	1.23198224	0	-0.38729808	0	0.00331475	0	0	-6.03302838	0
69.95000000	-2.39105329	-13.40257105	-2.43963043	-0.00223000	0	0.00077756	-55.34761822	772.58274609	-60.74246237	1.22561756	0	-0.38693481	0	0.00149051	0	0	-5.97171513	0
69.96000000	-2.04333638	-14.00518426	-2.75443025	0.00098738	0	-0.00055683	-51.65937076	777.00179715	-60.82524135	1.21927201	0	-0.38656384	0	0.00032821	0	0	-5.77967140	0.00000000
69.97000000	-2.08529945	-13.95094974	-2.78660119	0.00138460	0	-0.00065425	-48.26222337	779.11577439	-60.63194473	1.21320244	0	-0.38617430	0	-0.00012832	0	0	-5.49500936	0.00000000
69.98000000	-2.24916921	-13.73268522	-2.78527428	0.00085655	0	-0.00038093	-45.22301561	778.35874507	-60.15789579	1.20741181	0	-0.38577738	0	-0.00019007	0	0	-5.11010791	0
69.99000000	-2.42118902	-13.56597942	-2.76644825	0.00032582	0	-0.00013475	-42.34173572	774.85322085	-59.41582212	1.20193462	0	-0.38532252	0	-0.00011949	0	0	-4.66322138	0
